<svg width="156" height="154" viewBox="0 0 156 154" fill="none" xmlns="http://www.w3.org/2000/svg">
<path d="M147.104 46.3458C141.407 33.0164 131.902 21.6875 119.935 13.6843C107.971 5.67823 93.5162 0.997681 77.9988 1C67.6556 1 57.7793 3.07896 48.8045 6.83662C35.3382 12.4769 23.8948 21.8841 15.8101 33.7331C7.72324 45.5757 2.99532 59.8854 3 75.2473C2.99766 85.4892 5.09766 95.2642 8.896 104.151C14.5907 117.481 24.0955 128.809 36.0624 136.813C48.027 144.819 62.4814 149.499 77.9988 149.497C88.3421 149.497 98.2184 147.418 107.193 143.66C120.659 138.02 132.1 128.612 140.187 116.763C148.274 104.921 153 90.6115 153 75.2473C153 65.0077 150.9 55.2327 147.104 46.3458ZM112.649 102.868C110.138 107.16 112.154 113.13 109.057 117.015C105.85 120.935 104.219 119.98 101.939 125.232C101.689 125.916 97.6204 134.489 96.6041 131.938C97.4988 134.216 96.4919 136.48 93.5698 136.658C91.2407 136.794 92.9156 138.128 92.1917 139.051C89.3022 139.68 86.3426 140.126 83.3224 140.362C81.2927 133.025 80.1759 124.526 80.2271 122.098C80.4141 112.677 78.2909 116.493 73.3104 109.528C69.9073 104.738 66.8915 99.4337 67.069 93.3633C67.0433 94.448 73.9037 77.9666 68.9517 81.1094C62.9364 84.9297 61.8293 76.8845 56.0341 76.133C53.0745 75.7447 53.9364 72.7199 50.6171 73.2379C47.6364 73.7002 44.2494 69.7854 42.0398 68.31C40.5894 67.274 38.0619 53.3388 35.9338 53.5377C32.8948 53.6488 38.1598 63.123 37.0573 63.44C34.7892 63.8609 30.8133 50.0715 30.8883 48.9361C31.0025 45.2729 30.6451 43.2079 33.0935 40.1623C34.0441 38.9366 39.4562 34.2238 38.8863 32.5332C37.9172 29.5848 38.417 26.1461 36.8634 24.1713C38.2348 23.0869 39.6478 22.0509 41.1076 21.0746C44.1281 19.0537 47.3329 17.2822 50.6804 15.7722C51.0706 15.7606 51.4605 15.7444 51.8435 15.7029C54.8335 15.4138 57.8865 14.2647 60.9231 14.7203C64.9269 15.3027 69.2692 17.0095 73.4856 16.6835C77.3678 16.4129 88.321 12.9279 91.6497 15.7398C93.1189 16.9886 75.1137 22.0393 74.5415 24.4532C74.2494 26.0258 79.2296 25.8871 79.6594 25.9263C84.6653 26.3332 78.4169 30.4079 81.491 31.2864C86.2119 32.4149 89.6174 14.9465 93.5628 24.0808C95.1747 27.8686 100.713 21.6019 101.339 26.2752C101.97 31.1916 106.737 32.8543 97.9682 33.4927C89.7437 34.154 96.5432 37.7637 91.1754 40.1086C86.0411 42.3471 81.3457 43.33 77.5641 47.9296C73.2987 53.1465 72.89 52.973 71.2151 59.6493C70.2923 63.2936 65.4501 57.0848 67.2979 54.8069C66.6577 55.5883 60.9861 53.0377 60.423 54.3466C59.3229 56.8717 56.3329 55.5169 53.983 57.0639C51.0117 59.0089 48.1011 65.3125 51.0747 68.2679C53.4551 70.6175 61.6494 63.081 62.0956 65.6547C62.446 67.6229 59.1896 69.0194 59.545 70.9876C60.0565 73.8365 65.0739 70.1711 65.0716 72.3844C65.0739 73.8041 64.8357 79.7381 69.2528 78.2535C71.6332 77.4489 71.869 79.1369 73.357 78.7831C75.3961 78.2949 76.3072 75.6034 78.711 75.9547C81.5722 76.3685 84.7796 77.8025 87.5218 78.6027C91.9787 79.909 91.7801 83.5953 96.7394 84.3514C101.694 85.1238 99.7131 89.6657 99.1031 92.2394C99.3888 94.5588 119.926 91.1341 112.649 102.868ZM132.115 37.8728C132.316 38.1573 132.526 38.4395 132.72 38.7283C133.895 40.4442 134.979 42.2273 135.983 44.0586C135.56 44.2019 135.161 44.3176 134.855 44.3521C133.561 44.5139 131.461 43.3947 131.138 42.9138C130.879 42.5301 131.75 39.2049 132.115 37.8728ZM143.983 75.6057C143.617 75.4021 143.217 75.2934 142.771 75.3836C141.154 75.7026 135.016 77.303 132.755 76.9814C130.491 76.66 123.385 69.9446 123.385 68.3445C123.385 66.7464 123.708 60.667 124.352 59.7073C125 58.7476 128.552 54.3632 129.846 52.446C131.138 50.5246 133.077 47.9691 134.693 47.6477C135.196 47.5483 136.268 47.3542 137.571 47.1158C141.682 55.6352 143.988 65.1648 143.99 75.2473C143.99 75.3676 143.983 75.4831 143.983 75.6057Z" fill="#091732"/>
<path d="M112.649 102.868C110.138 107.16 112.154 113.13 109.057 117.015C105.85 120.935 104.219 119.98 101.939 125.232C101.689 125.916 97.6204 134.489 96.6041 131.938C97.4988 134.216 96.4919 136.48 93.5698 136.658C91.2407 136.794 92.9156 138.128 92.1917 139.051C89.3022 139.68 86.3426 140.126 83.3224 140.362C81.2927 133.025 80.1759 124.526 80.2271 122.098C80.4141 112.677 78.2909 116.493 73.3104 109.528C69.9073 104.738 66.8915 99.4337 67.069 93.3633C67.0433 94.448 73.9037 77.9666 68.9517 81.1094C62.9364 84.9297 61.8293 76.8845 56.0341 76.133C53.0745 75.7447 53.9364 72.7199 50.6171 73.2379C47.6364 73.7002 44.2494 69.7854 42.0398 68.31C40.5894 67.274 38.0619 53.3388 35.9338 53.5377C32.8948 53.6488 38.1598 63.123 37.0573 63.44C34.7892 63.8609 30.8133 50.0715 30.8883 48.9361C31.0025 45.2729 30.6451 43.2079 33.0935 40.1623C34.0441 38.9366 39.4562 34.2238 38.8863 32.5332C37.9172 29.5848 38.417 26.1461 36.8634 24.1713C38.2348 23.0869 39.6478 22.0509 41.1076 21.0746C44.1281 19.0537 47.3329 17.2822 50.6804 15.7722C51.0706 15.7606 51.4605 15.7444 51.8435 15.7029C54.8335 15.4138 57.8865 14.2647 60.9231 14.7203C64.9269 15.3027 69.2692 17.0095 73.4856 16.6835C77.3678 16.4129 88.321 12.9279 91.6497 15.7398C93.1189 16.9886 75.1137 22.0393 74.5415 24.4532C74.2494 26.0258 79.2296 25.8871 79.6594 25.9263C84.6653 26.3332 78.4169 30.4079 81.491 31.2864C86.2119 32.4149 89.6174 14.9465 93.5628 24.0808C95.1747 27.8686 100.713 21.6019 101.339 26.2752C101.97 31.1916 106.737 32.8543 97.9682 33.4927C89.7437 34.154 96.5432 37.7637 91.1754 40.1086C86.0411 42.3471 81.3457 43.33 77.5641 47.9296C73.2987 53.1465 72.89 52.973 71.2151 59.6493C70.2923 63.2936 65.4501 57.0848 67.2979 54.8069C66.6577 55.5883 60.9861 53.0377 60.423 54.3466C59.3229 56.8717 56.3329 55.5169 53.983 57.0639C51.0117 59.0089 48.1011 65.3125 51.0747 68.2679C53.4551 70.6175 61.6494 63.081 62.0956 65.6547C62.446 67.6229 59.1896 69.0194 59.545 70.9876C60.0565 73.8365 65.0739 70.1711 65.0716 72.3844C65.0739 73.8041 64.8357 79.7381 69.2528 78.2535C71.6332 77.4489 71.869 79.1369 73.357 78.7831C75.3961 78.2949 76.3072 75.6034 78.711 75.9547C81.5722 76.3685 84.7796 77.8025 87.5218 78.6027C91.9787 79.909 91.7801 83.5953 96.7394 84.3514C101.694 85.1238 99.7131 89.6657 99.1031 92.2394C99.3888 94.5588 119.926 91.1341 112.649 102.868Z" fill="white"/>
<path d="M143.983 75.6057C143.617 75.4021 143.217 75.2934 142.771 75.3836C141.154 75.7026 135.016 77.303 132.755 76.9814C130.491 76.66 123.385 69.9446 123.385 68.3445C123.385 66.7464 123.708 60.667 124.352 59.7073C125 58.7476 128.552 54.3632 129.846 52.446C131.138 50.5246 133.077 47.9691 134.693 47.6477C135.196 47.5483 136.268 47.3542 137.571 47.1158C141.682 55.6352 143.988 65.1648 143.99 75.2473C143.99 75.3676 143.983 75.4831 143.983 75.6057Z" fill="white"/>
<path d="M132.115 37.8728C132.316 38.1573 132.526 38.4395 132.72 38.7283C133.895 40.4442 134.979 42.2273 135.983 44.0586C135.56 44.2019 135.161 44.3176 134.855 44.3521C133.561 44.5139 131.461 43.3947 131.138 42.9138C130.879 42.5301 131.75 39.2049 132.115 37.8728Z" fill="white"/>
<path d="M12.375 113.876H143.625M12.375 39.6274H143.625M3 76.7516H153M3 76.7516C3 117.758 36.5786 151 78 151M3 76.7516C3 35.7453 36.5786 2.50314 78 2.50314M153 76.7516C153 117.758 119.422 151 78 151M153 76.7516C153 35.7453 119.422 2.50314 78 2.50314M78 151C78 151 35.8125 132.438 35.8125 76.7516C35.8125 21.0652 78 2.50314 78 2.50314M78 151C78 151 120.188 132.438 120.188 76.7516C120.188 21.0652 78 2.50314 78 2.50314M78 151C78 93.0084 78 60.4948 78 2.50314" stroke="#F2F2F2" stroke-width="5"/>
</svg>
